<?xml version="1.0" standalone="no"?>
<!DOCTYPE svg PUBLIC "-//W3C//DTD SVG 20010904//EN"
 "http://www.w3.org/TR/2001/REC-SVG-20010904/DTD/svg10.dtd">
<svg version="1.0" xmlns="http://www.w3.org/2000/svg"
 width="960.000000pt" height="960.000000pt" viewBox="0 0 960.000000 960.000000"
 preserveAspectRatio="xMidYMid meet">

<g transform="translate(0.000000,960.000000) scale(0.100000,-0.100000)"
fill="#000000" stroke="none">
<path d="M0 8885 c0 -705 0 -716 19 -705 46 24 91 -2 91 -53 0 -32 -34 -44
-80 -28 l-31 10 3 -66 c3 -66 3 -67 36 -75 26 -7 32 -13 32 -36 0 -29 -30 -62
-56 -62 -13 0 -15 -11 -11 -67 3 -38 9 -84 12 -104 4 -23 3 -39 -4 -43 -8 -5
-11 -108 -11 -334 1 -290 2 -325 15 -308 11 14 18 17 26 9 7 -7 2 -15 -15 -27
-31 -20 -33 -37 -5 -54 16 -10 24 -10 35 -1 16 13 19 39 4 39 -5 0 -10 -5 -10
-12 0 -6 -2 -9 -5 -6 -9 8 17 58 26 52 15 -9 10 -71 -6 -84 -8 -7 -26 -10 -40
-8 -25 5 -25 4 -25 -62 0 -61 2 -68 23 -75 l22 -8 -22 -4 c-28 -5 -30 -23 -3
-23 11 0 20 -6 20 -14 0 -9 -7 -12 -20 -9 -14 4 -20 0 -20 -12 0 -11 5 -15 15
-11 8 3 15 1 15 -4 0 -6 -6 -10 -14 -10 -12 0 -15 -69 -15 -460 -1 -449 -1
-460 18 -460 31 0 51 -11 51 -29 0 -14 -2 -14 -11 -1 -9 12 -10 12 -7 1 8 -27
26 -22 33 8 4 17 11 31 15 31 5 0 7 -7 3 -15 -3 -9 -2 -15 3 -14 32 6 43 -2
41 -30 -2 -32 -12 -29 -20 4 -4 18 -5 18 -6 -2 0 -13 -6 -23 -12 -23 -6 0 -9
9 -6 20 3 11 1 23 -4 26 -5 3 -9 -4 -9 -15 0 -17 -6 -21 -29 -21 -25 0 -30 5
-34 28 l-4 27 -2 -27 c0 -16 -5 -28 -11 -28 -6 0 -10 -38 -10 -95 0 -80 3 -95
16 -95 11 0 14 -6 9 -20 -4 -11 -2 -20 4 -20 6 0 11 9 11 20 0 11 5 20 11 20
6 0 8 -7 5 -16 -3 -9 -6 -22 -6 -30 0 -15 -30 -8 -42 10 -4 6 -8 -61 -8 -148
0 -136 2 -157 13 -142 13 18 14 18 21 1 4 -11 2 -22 -6 -26 -9 -6 -9 -11 1
-23 16 -19 1 -22 -17 -4 -9 9 -12 -106 -12 -520 l0 -531 38 -8 c20 -4 44 -6
54 -4 9 1 19 -3 23 -9 3 -5 1 -10 -6 -10 -7 0 -9 -8 -6 -21 4 -15 1 -19 -11
-17 -9 2 -19 14 -22 28 l-6 25 -13 -23 c-9 -16 -19 -22 -32 -19 -18 5 -19 -5
-18 -356 1 -199 3 -354 6 -344 3 13 11 16 31 11 15 -4 29 -8 31 -10 2 -2 10 1
16 6 9 7 16 5 26 -6 10 -12 10 -17 1 -23 -7 -4 -10 -15 -6 -24 4 -12 1 -17
-10 -17 -10 0 -16 9 -16 25 0 14 -4 25 -9 25 -5 0 -7 -9 -4 -20 5 -17 0 -20
-31 -20 l-36 0 0 -1640 0 -1640 4800 0 4800 0 0 678 -1 678 -29 -4 c-19 -3
-30 0 -30 8 0 7 7 10 15 6 19 -7 19 1 0 21 -21 21 -14 37 18 41 27 3 27 4 27
80 0 72 -2 78 -25 89 -14 6 -25 7 -25 2 0 -5 -7 -9 -15 -9 -8 0 -15 5 -15 10
0 6 5 10 12 10 6 0 4 8 -6 19 -9 10 -14 25 -10 35 7 18 13 20 34 6 13 -8 12
-10 -2 -10 -23 0 -23 -9 -1 -25 12 -9 23 -10 36 -3 17 9 18 26 16 248 -1 133
-5 237 -10 234 -5 -3 -9 -12 -9 -20 0 -8 -4 -14 -10 -14 -5 0 -10 8 -10 18 0
12 -3 14 -8 4 -5 -7 -19 -11 -33 -9 -20 3 -24 10 -27 45 -2 33 0 42 12 42 9 0
16 -6 16 -14 0 -8 18 -18 40 -24 l40 -10 0 123 c0 67 -3 137 -6 154 -7 33 -23
42 -25 14 -1 -12 -4 -10 -9 7 -8 24 -8 24 -9 3 -1 -33 -37 -30 -56 5 -14 23
-16 24 -12 5 6 -27 -14 -31 -33 -8 -8 9 -21 13 -32 9 -16 -5 -18 -2 -12 23 10
43 22 49 35 19 12 -25 13 -25 36 -11 23 15 24 15 29 -15 7 -33 19 -46 29 -30
3 5 1 10 -4 10 -6 0 -11 5 -11 11 0 7 14 8 40 4 l40 -7 0 136 c0 79 -4 137
-10 141 -13 8 -13 52 0 60 6 4 10 161 10 439 0 365 -2 438 -15 462 -10 20 -15
23 -15 12 0 -10 -4 -18 -10 -18 -5 0 -10 16 -10 35 0 28 4 35 20 35 11 0 20
-5 20 -11 0 -5 -5 -7 -12 -3 -7 4 -8 3 -4 -4 20 -33 26 -4 24 110 l-3 122 -45
2 c-25 1 -55 2 -68 3 -19 1 -22 5 -17 21 4 11 2 20 -4 20 -6 0 -11 -7 -11 -15
0 -24 -20 -17 -21 8 -1 21 -1 21 -8 -3 -5 -17 -9 -21 -15 -12 -4 6 -4 17 -1
22 3 6 1 10 -4 10 -6 0 -11 -9 -11 -19 0 -14 -5 -18 -20 -14 -11 3 -20 12 -20
20 0 13 -3 13 -16 2 -14 -11 -19 -10 -35 10 -15 18 -19 19 -19 7 0 -9 -4 -16
-9 -16 -5 0 -4 15 2 35 6 19 13 35 17 35 3 0 14 -15 23 -32 15 -32 16 -32 17
-8 1 23 2 23 14 8 7 -10 15 -15 19 -12 3 3 33 0 67 -7 46 -9 64 -9 73 0 18 18
27 13 27 -16 0 -22 2 -25 10 -13 8 13 10 12 10 -4 0 -19 0 -19 14 -1 13 18 13
18 24 -1 9 -14 11 65 12 314 0 300 -2 332 -16 332 -13 0 -14 3 -5 14 7 9 8 17
3 20 -6 3 -12 -1 -16 -9 -10 -26 -34 -17 -38 16 -5 30 -5 30 34 24 l38 -7 0
129 c0 112 -3 131 -20 153 -18 23 -20 24 -21 5 0 -11 -5 -4 -9 15 -10 42 -6
48 18 27 10 -10 22 -17 25 -17 4 0 7 85 7 189 l0 190 -57 12 c-32 7 -66 11
-76 10 -10 -1 -27 5 -38 15 -17 15 -20 16 -44 0 -25 -16 -25 -16 -25 14 0 32
-14 40 -24 15 -6 -17 -51 -20 -61 -5 -3 6 -17 7 -31 4 -14 -4 -24 -2 -24 5 0
6 5 11 10 11 7 0 7 7 -1 21 -14 26 2 45 28 34 17 -8 17 -8 0 -12 -14 -4 -16
-8 -6 -19 9 -11 15 -11 25 -3 8 6 22 8 31 4 10 -4 27 -8 38 -9 67 -7 106 -19
101 -32 -3 -7 -1 -16 4 -19 6 -4 10 5 10 18 0 35 12 41 31 16 12 -17 28 -23
63 -24 l46 -1 0 73 c0 43 -4 72 -9 68 -5 -3 -12 5 -14 17 l-4 23 -2 -23 c-1
-23 -15 -24 -76 -2 -11 4 -25 5 -32 3 -6 -2 -13 6 -16 19 -4 20 -4 19 -6 -6
-1 -21 -5 -27 -17 -22 -9 3 -18 6 -20 6 -2 0 -5 12 -5 28 -1 16 -3 20 -6 10
-6 -23 -23 -23 -23 0 -1 15 -2 15 -12 -3 -12 -19 -13 -18 -19 10 l-6 30 -11
-25 c-8 -18 -11 -20 -11 -7 -1 20 -17 23 -24 5 -4 -10 -7 -10 -15 0 -5 7 -16
10 -25 6 -21 -8 -23 15 -2 42 15 19 23 15 39 -21 3 -6 8 -5 13 3 7 10 19 9 59
-2 72 -21 134 -28 134 -16 0 5 5 10 11 10 8 0 9 -11 5 -32 -4 -26 -3 -29 5
-15 8 13 18 16 50 11 l39 -7 0 165 0 165 -39 7 c-31 5 -40 11 -45 32 -9 35 -3
39 35 25 18 -6 36 -11 40 -11 5 0 9 31 9 68 l0 68 -45 12 c-25 7 -45 17 -45
23 0 8 -4 8 -14 0 -11 -9 -15 -8 -21 6 -7 17 -8 17 -14 1 -5 -16 -9 -16 -33
-4 -15 8 -29 12 -32 8 -3 -3 -6 3 -6 14 0 13 -3 15 -8 7 -10 -16 -47 -18 -87
-6 -24 8 -31 16 -33 41 -2 18 1 32 7 32 6 0 11 -11 11 -24 0 -30 16 -42 27
-22 7 13 20 13 81 5 40 -6 104 -18 142 -28 l70 -19 0 95 c0 87 -2 95 -20 100
-21 6 -37 44 -25 62 3 6 15 11 26 11 18 0 19 9 19 278 0 209 -3 281 -13 291
-9 11 -9 14 1 18 6 3 12 13 12 23 0 10 -6 21 -12 24 -10 5 -10 7 0 12 9 4 12
264 12 1250 l0 1244 -4800 0 -4800 0 0 -715z m87 51 c-3 -8 0 -17 8 -20 9 -3
12 -16 10 -33 -2 -15 -4 -31 -4 -34 -2 -14 -32 -18 -56 -9 -20 8 -25 16 -25
45 0 31 3 35 25 35 16 0 25 6 25 15 0 8 5 15 11 15 6 0 9 -6 6 -14z m224 -68
c1 -17 2 -19 6 -5 2 9 10 17 17 17 10 0 12 -9 7 -32 -7 -33 -31 -52 -31 -24 0
20 -26 21 -34 1 -9 -25 -26 -17 -26 13 0 32 16 52 42 52 12 0 18 -8 19 -22z
m209 -33 c6 -8 8 -20 4 -27 -6 -10 -5 -10 7 -1 15 12 69 6 69 -7 0 -5 -3 -15
-6 -24 -8 -22 -28 -20 -20 2 6 16 5 16 -8 -1 -12 -15 -16 -16 -28 -3 -10 10
-19 11 -32 4 -26 -14 -39 4 -31 41 7 33 25 40 45 16z m116 -19 c8 -8 14 -21
15 -28 0 -10 2 -10 6 0 9 23 25 12 20 -15 l-5 -27 17 23 c17 22 51 21 51 -3
-1 -36 -14 -56 -37 -56 -17 0 -23 4 -20 14 5 13 -24 30 -45 27 -5 -1 -9 11 -9
27 -1 20 -2 22 -6 7 -3 -11 -10 -24 -15 -30 -7 -7 -9 -2 -4 15 3 14 6 33 6 43
0 21 7 22 26 3z m264 -68 l0 -21 25 23 c14 13 25 18 25 12 0 -15 -47 -68 -54
-61 -12 12 -18 69 -7 69 6 0 11 -10 11 -22z m-800 -23 c17 -20 5 -62 -20 -70
-41 -13 -79 29 -60 66 13 23 62 26 80 4z m901 -15 c2 -25 2 -25 6 -2 3 16 9
22 20 18 8 -3 21 -6 29 -6 11 0 11 -5 2 -25 -13 -29 -28 -33 -28 -7 0 12 -2
14 -8 4 -11 -16 -92 -5 -92 12 0 20 20 34 46 32 18 -1 24 -7 25 -26z m-761 -9
c25 -47 -7 -94 -49 -72 -32 18 -39 51 -15 75 21 22 51 20 64 -3z m1010 -12 c0
-6 -4 -7 -10 -4 -5 3 -10 2 -10 -4 0 -14 23 -19 40 -9 9 6 26 5 43 -1 23 -9
27 -15 21 -34 -9 -29 -10 -30 -24 -22 -6 4 -9 13 -6 21 3 8 -1 17 -10 21 -21
8 -29 -4 -14 -22 8 -9 8 -15 2 -15 -6 0 -14 5 -17 10 -3 6 -17 7 -30 4 -12 -3
-26 -1 -29 5 -4 6 0 11 8 11 14 0 14 3 4 20 -11 17 -10 22 2 30 15 10 30 4 30
-11z m-868 -11 c37 -30 25 -78 -20 -78 -34 0 -52 16 -52 47 0 35 43 54 72 31z
m1033 -32 c11 -2 26 -4 33 -5 14 -1 17 -37 3 -45 -15 -10 -61 12 -61 29 0 8
-4 15 -10 15 -5 0 -10 -7 -10 -15 0 -8 -7 -15 -16 -15 -11 0 -14 5 -10 16 3 9
6 20 6 26 0 6 9 8 23 4 12 -4 31 -9 42 -10z m206 -28 c1 -7 1 -16 0 -20 -2
-15 11 -8 30 15 10 12 18 17 19 10 0 -14 -46 -70 -53 -63 -10 12 -16 70 -7 70
6 0 11 -6 11 -12z m64 -37 c-16 -31 -35 -41 -35 -19 0 13 41 60 47 54 3 -2 -3
-18 -12 -35z m50 -18 c5 -19 2 -23 -15 -23 -26 0 -37 25 -20 46 15 17 24 10
35 -23z m25 5 c-1 -28 -2 -30 -11 -15 -6 10 -8 25 -5 33 9 24 16 16 16 -18z
m30 7 c0 -9 6 -12 15 -9 23 9 85 -5 85 -19 0 -20 -21 -44 -26 -31 -3 7 -14 10
-25 7 -12 -4 -25 1 -34 13 -8 11 -14 14 -15 7 0 -7 -4 -13 -10 -13 -5 0 -10
16 -10 36 0 21 4 33 10 29 6 -3 10 -13 10 -20z m284 -34 c4 -5 1 -11 -6 -13
-10 -4 -9 -9 4 -21 15 -15 16 -15 22 6 4 16 8 19 14 9 5 -7 37 -17 72 -23 36
-6 69 -13 75 -17 5 -4 27 -7 47 -7 33 0 37 -2 32 -20 -9 -28 -12 -29 -27 -17
-10 9 -17 8 -26 -1 -10 -9 -16 -7 -32 12 -15 18 -19 20 -19 7 0 -10 -4 -15
-10 -11 -5 3 -6 13 -3 23 4 13 2 13 -10 -3 -15 -19 -16 -19 -17 -1 0 16 -2 16
-18 -4 l-19 -23 -22 22 c-12 12 -19 27 -16 34 4 7 1 5 -7 -4 -7 -9 -24 -15
-38 -13 -14 1 -29 3 -33 3 -5 1 -5 6 -2 11 4 6 12 7 18 3 7 -3 3 4 -8 16 -16
19 -17 24 -5 31 19 12 27 12 34 1z m-1924 -71 c16 -8 17 -14 7 -40 -7 -19 -17
-28 -27 -26 -8 2 -32 7 -52 11 -39 6 -42 12 -31 54 5 21 10 22 46 17 22 -4 48
-11 57 -16z m2371 -42 l13 -33 3 32 c4 31 4 32 24 12 10 -10 30 -19 44 -19 17
0 29 -7 35 -22 8 -21 9 -19 11 12 1 19 3 27 6 18 2 -10 13 -18 22 -18 13 0 19
-8 19 -25 0 -27 -1 -28 -47 -19 -23 5 -31 12 -32 28 0 19 -1 19 -11 -4 l-11
-25 -5 25 c-4 23 -5 24 -13 5 -7 -19 -8 -19 -8 -1 -1 18 -2 18 -13 3 -12 -15
-16 -15 -41 -2 -15 8 -34 12 -42 8 -20 -7 -19 3 3 32 23 32 28 31 43 -7z
m-2234 9 c-26 -11 -27 -13 -12 -32 15 -20 15 -20 33 0 17 20 52 23 52 4 0 -6
6 -7 13 -2 6 4 20 6 30 5 9 -2 17 2 17 9 0 7 3 10 6 6 3 -3 0 -19 -7 -35 -12
-27 -16 -29 -53 -25 -68 8 -99 18 -109 35 -16 24 -1 48 30 48 l28 -1 -28 -12z
m199 -50 c1 -1 6 -11 13 -22 10 -18 11 -17 5 8 -5 21 -2 27 10 27 8 0 13 -6
10 -13 -3 -9 6 -13 33 -13 33 0 38 -3 38 -24 0 -30 -21 -37 -28 -9 -3 12 -10
18 -16 14 -6 -3 -8 -11 -5 -17 7 -11 -2 -10 -88 13 -36 9 -48 26 -31 43 6 6
55 0 59 -7z m2402 -11 c10 17 11 17 12 2 0 -12 5 -15 16 -11 10 4 17 -2 21
-18 7 -24 7 -24 19 6 8 18 13 23 14 13 0 -12 8 -18 25 -18 36 0 44 -28 14 -51
-30 -23 -39 -24 -39 -1 0 15 -6 18 -30 14 -22 -3 -32 0 -36 13 -5 13 -9 14
-15 3 -7 -10 -9 -9 -9 5 0 9 -7 17 -15 17 -8 0 -15 -8 -15 -17 0 -10 -3 -13
-9 -7 -5 5 -6 24 -4 43 l6 34 17 -23 c17 -22 18 -22 28 -4z m-1603 -147 c-8
-11 -65 -42 -65 -34 0 11 55 53 63 48 4 -2 5 -9 2 -14z m-1029 -113 c3 -8 16
-11 34 -8 21 3 30 0 30 -10 0 -38 -68 -54 -77 -18 -5 20 -33 29 -33 10 0 -5
-4 -10 -10 -10 -13 0 -13 26 0 51 9 16 15 17 31 8 11 -5 22 -16 25 -23z m184
-36 c40 -6 79 -15 87 -21 10 -9 13 -8 13 5 0 9 4 16 10 16 5 0 7 -7 4 -15 -4
-10 0 -15 15 -15 22 0 27 -15 12 -39 -6 -8 -14 -10 -22 -5 -16 10 -20 10 -71
12 -33 2 -38 5 -38 27 0 29 -14 33 -29 8 -9 -16 -12 -16 -21 -3 -6 10 -10 11
-10 3 0 -21 -31 -14 -37 8 -4 16 -8 17 -14 7 -6 -9 -9 -5 -9 13 0 33 11 44 26
25 7 -10 40 -20 84 -26z m776 -112 c5 -7 9 -30 10 -51 2 -35 0 -37 -15 -24 -9
8 -24 17 -34 20 -24 9 -32 34 -17 52 15 18 46 20 56 3z m-996 -57 c0 -5 -10
-11 -22 -13 -30 -4 -30 -32 0 -36 17 -3 25 2 29 16 4 18 7 19 50 6 25 -8 49
-11 54 -8 5 3 9 -6 9 -20 0 -14 -5 -28 -10 -31 -6 -3 -10 3 -10 14 0 12 -4 21
-10 21 -5 0 -10 -7 -10 -15 0 -8 -5 -15 -11 -15 -5 0 -7 5 -4 10 8 14 -8 13
-22 -1 -7 -7 -19 -8 -30 -4 -10 5 -24 7 -30 6 -42 -7 -70 48 -35 68 22 13 52
14 52 2z m150 -41 c0 -5 9 -10 19 -10 12 0 21 -9 25 -25 7 -27 26 -34 26 -9 0
8 -4 12 -10 9 -5 -3 -10 -2 -10 3 0 14 28 23 35 11 4 -5 3 -18 0 -29 -9 -28
-54 -23 -68 7 -6 13 -14 23 -19 23 -12 0 -10 -14 4 -28 9 -9 8 -12 -5 -12 -13
0 -17 9 -17 35 0 19 5 35 10 35 6 0 10 -4 10 -10z m118 -50 c-11 -18 -28 -27
-28 -16 0 16 14 36 26 36 12 0 12 -4 2 -20z m4499 -40 c5 -20 23 -28 23 -10 0
6 7 10 15 10 8 0 15 -4 15 -8 0 -8 11 -10 75 -12 20 -1 42 -8 50 -16 8 -8 16
-10 20 -5 10 18 35 -1 35 -26 0 -22 -4 -24 -32 -22 -18 2 -37 5 -43 8 -5 3
-17 7 -25 8 -21 3 -81 13 -104 17 -10 1 -25 11 -32 21 -12 17 -14 17 -14 2 0
-9 -4 -17 -10 -17 -11 0 -14 53 -3 63 12 13 25 7 30 -13z m296 -50 c3 -10 -1
-27 -9 -37 -12 -16 -13 -14 -14 20 0 39 14 50 23 17z m32 0 c-3 -5 -11 -10
-16 -10 -6 0 -7 5 -4 10 3 6 11 10 16 10 6 0 7 -4 4 -10z m-4130 -20 c-3 -5
-11 -10 -16 -10 -6 0 -7 5 -4 10 3 6 11 10 16 10 6 0 7 -4 4 -10z m4217 -9
c23 -5 40 -5 47 2 7 7 12 5 17 -6 4 -12 13 -15 29 -11 21 5 24 2 23 -25 -1
-28 -3 -30 -32 -27 -17 2 -41 4 -53 5 -14 1 -23 7 -23 17 0 13 -3 14 -15 4 -8
-6 -20 -8 -27 -4 -7 4 -23 9 -36 10 -37 4 -54 13 -47 24 4 6 10 8 15 5 5 -3
11 -1 15 5 7 12 37 12 87 1z m-5214 -34 c4 -30 -4 -33 -32 -12 -16 12 -17 17
-6 30 18 22 34 14 38 -18z m962 29 c0 -2 -7 -7 -16 -10 -8 -3 -12 -2 -9 4 6
10 25 14 25 6z m-826 -67 c3 -17 10 -28 15 -25 5 3 7 15 4 26 -5 19 -4 19 26
4 34 -17 33 -16 25 -38 -8 -21 -72 -22 -80 -1 -4 10 -13 13 -26 9 -20 -6 -20
-6 -2 25 23 39 30 39 38 0z m-145 2 c39 -7 55 -31 20 -31 -28 0 -99 21 -99 30
0 14 14 20 29 14 9 -4 31 -9 50 -13z m230 -55 c-9 -8 -10 -5 -5 14 3 14 6 32
7 40 1 8 4 2 6 -14 3 -16 -1 -34 -8 -40z m81 30 c14 -1 24 -3 23 -6 -1 -3 -6
-16 -11 -30 l-10 -25 -10 25 c-8 19 -11 21 -11 7 -1 -31 -36 -16 -39 17 -3 25
-1 28 15 21 10 -4 29 -8 43 -9z m640 -121 c-10 -12 -10 -18 1 -32 13 -17 13
-17 -7 -1 -11 10 -25 14 -30 10 -5 -4 2 3 16 15 29 26 38 30 20 8z m-980 -15
c16 -8 17 -15 8 -50 -10 -40 -11 -40 -47 -34 -66 10 -67 12 -45 82 4 14 58 16
84 2z m113 -82 c-6 -12 -33 -9 -33 3 0 6 5 20 12 32 l12 22 6 -25 c4 -14 5
-28 3 -32z m41 20 c-4 -13 -7 -29 -7 -36 0 -7 -4 -11 -9 -10 -11 4 -11 8 -2
43 3 14 10 25 16 25 5 0 6 -10 2 -22z m76 -3 c0 -8 7 -15 16 -15 11 0 14 -5 9
-17 -5 -15 -4 -16 6 -5 7 6 20 12 29 11 10 0 11 -2 3 -6 -7 -2 -13 -13 -13
-23 0 -16 -4 -17 -35 -7 -31 9 -35 13 -32 44 2 32 17 48 17 18z m7666 -1 c17
-14 17 -15 1 -10 -10 3 -28 6 -38 6 -11 0 -17 5 -14 10 9 15 28 12 51 -6z
m-7716 -5 c0 -5 5 -7 10 -4 16 10 11 -27 -7 -47 -24 -27 -29 -22 -25 22 2 22
8 40 13 40 5 0 9 -5 9 -11z m7702 -54 c28 0 34 -3 26 -12 -6 -7 -19 -13 -29
-13 -22 0 -59 37 -59 59 0 10 5 6 13 -9 10 -20 20 -25 49 -25z m8 24 c0 -11
-27 -12 -34 0 -3 4 -3 11 0 14 8 8 34 -3 34 -14z m220 -4 c32 -34 19 -78 -24
-83 -57 -7 -89 61 -44 92 30 22 41 20 68 -9z m-7774 -10 c0 -16 -7 -25 -17
-25 -12 0 -15 7 -11 25 6 33 30 33 28 0z m7972 -21 c32 -22 26 -63 -11 -84
-27 -14 -29 -14 -53 13 -26 30 -32 72 -11 80 24 10 53 7 75 -9z m188 -29 c33
-13 35 -17 32 -52 -3 -36 -5 -38 -41 -41 -21 -2 -45 2 -53 9 -27 22 -13 99 18
99 5 0 25 -7 44 -15z m-7541 -45 c-3 -5 -12 -10 -18 -10 -7 0 -6 4 3 10 19 12
23 12 15 0z m-999 -23 c26 -23 26 -24 10 -55 -22 -43 -28 -40 -20 8 6 36 4 40
-21 52 -24 11 -29 10 -41 -7 -20 -27 -14 -47 19 -63 16 -8 26 -16 24 -19 -3
-3 -18 1 -34 9 -19 9 -29 22 -31 41 -7 57 45 76 94 34z m8965 -16 c4 -3 9 -30
12 -58 l6 -53 -29 0 c-18 0 -30 5 -30 13 0 7 -13 18 -30 24 -22 8 -30 18 -30
36 0 49 9 57 54 51 22 -4 44 -9 47 -13z m-238 -5 c4 -10 1 -13 -8 -9 -8 3 -12
9 -9 14 7 12 11 11 17 -5z m-8613 -26 c0 -29 17 -33 24 -5 7 29 22 33 30 8 8
-25 1 -56 -12 -61 -8 -2 -10 3 -6 15 6 17 6 17 -8 0 -12 -17 -15 -17 -27 -3
-7 8 -19 12 -27 9 -12 -4 -14 0 -8 23 4 16 9 32 11 37 7 13 23 -3 23 -23z
m8619 -10 c12 0 21 -4 21 -10 0 -5 -6 -8 -12 -6 -7 3 -25 7 -40 10 -16 4 -28
11 -28 17 0 6 6 6 19 -1 11 -5 29 -10 40 -10z m425 -9 c15 -16 15 -19 1 -31
-8 -7 -15 -19 -15 -26 0 -29 -20 -15 -30 21 -2 6 -10 15 -18 21 -13 10 -13 13
4 22 27 16 39 15 58 -7z m-8875 -10 c10 -10 21 -25 24 -32 3 -9 6 -7 7 6 1 20
1 20 15 1 8 -11 15 -14 15 -8 0 7 6 12 14 12 11 0 12 -5 3 -23 -8 -18 -17 -22
-45 -19 -27 4 -33 8 -29 23 3 11 1 22 -4 25 -5 3 -9 -4 -9 -15 0 -29 -30 -27
-31 2 l-2 22 -4 -22 c-2 -13 -9 -23 -14 -23 -6 0 -8 8 -5 18 5 13 -1 22 -16
31 -22 11 -22 11 4 6 15 -3 30 -1 33 5 9 15 23 12 44 -9z m-79 -25 c0 -7 -8
-20 -17 -27 -15 -12 -16 -12 -10 4 4 10 7 23 7 28 0 5 5 9 10 9 6 0 10 -6 10
-14z m9140 -18 l0 -22 16 23 c21 29 35 11 27 -34 -8 -40 -9 -41 -40 -24 -61
31 -80 63 -45 72 35 9 42 7 42 -15z m-9245 -178 c4 -17 11 -28 16 -24 5 3 7 9
4 14 -3 5 -1 11 5 15 6 3 11 -4 11 -17 1 -17 3 -18 6 -5 5 18 23 24 23 8 0
-30 -12 -39 -42 -31 -16 5 -36 14 -44 21 -11 9 -18 9 -29 -1 -22 -18 -18 3 6
34 24 31 35 27 44 -14z m91 -2 c-3 -13 -6 -29 -6 -35 0 -7 -4 -13 -8 -13 -4 0
-6 16 -4 35 2 19 9 35 14 35 6 0 8 -10 4 -22z m20 -56 c-11 -10 -13 3 -7 43
l6 40 3 -39 c2 -21 1 -41 -2 -44z m92 33 c5 -4 -22 -45 -29 -45 -4 0 -5 10 -3
23 l5 22 -12 -22 c-17 -33 -39 -29 -35 5 2 15 4 28 5 29 1 3 65 -9 69 -12z
m8672 -155 c0 -5 -4 -10 -10 -10 -5 0 -10 5 -10 10 0 6 5 10 10 10 6 0 10 -4
10 -10z m-8926 -45 c8 -19 20 -35 27 -35 9 0 9 3 0 14 -14 17 0 29 24 20 10
-4 21 -1 26 7 6 10 9 2 9 -24 l0 -38 -42 6 c-24 4 -50 12 -58 19 -8 8 -21 11
-27 9 -7 -3 -13 -2 -13 2 0 6 33 54 37 55 2 0 9 -16 17 -35z m107 -26 c-6 -24
-9 -28 -10 -12 -1 24 9 56 16 50 2 -3 0 -20 -6 -38z m48 2 c17 -11 5 -52 -14
-45 -16 7 -27 32 -19 45 7 11 15 11 33 0z m90 -17 c1 -1 -3 -11 -10 -21 -13
-17 -21 -19 -55 -15 -6 1 -9 13 -7 27 5 21 9 23 37 18 17 -3 33 -7 35 -9z
m541 -105 c0 -6 -4 -7 -10 -4 -5 3 -10 11 -10 16 0 6 5 7 10 4 6 -3 10 -11 10
-16z m40 1 c0 -5 -5 -10 -11 -10 -5 0 -7 5 -4 10 3 6 8 10 11 10 2 0 4 -4 4
-10z m-50 -30 c0 -5 -5 -10 -11 -10 -5 0 -7 5 -4 10 3 6 8 10 11 10 2 0 4 -4
4 -10z m8170 -4 c0 -2 -7 -6 -15 -10 -8 -3 -15 -1 -15 4 0 6 7 10 15 10 8 0
15 -2 15 -4z m50 -31 c-26 -28 -42 -31 -59 -11 -9 11 -7 12 12 9 14 -3 29 2
36 11 8 9 18 16 24 16 6 0 0 -11 -13 -25z m-9048 -21 c-2 -26 -1 -27 11 -11
19 23 25 21 23 -8 -1 -18 -5 -23 -16 -18 -8 3 -25 7 -37 7 -13 1 -23 1 -23 2
0 1 5 15 11 33 14 39 35 35 31 -5z m9210 14 c16 16 28 15 28 -3 0 -10 10 -15
30 -15 17 0 30 5 30 10 0 6 5 10 10 10 6 0 10 -8 10 -17 0 -12 8 -18 25 -19
76 -5 99 -36 50 -68 -30 -20 -35 -20 -35 -2 0 17 -21 26 -75 32 -22 3 -45 10
-52 16 -7 6 -13 7 -13 3 0 -4 -7 -2 -15 5 -8 6 -19 9 -25 5 -6 -4 -10 8 -10
32 1 36 2 37 15 19 12 -16 18 -17 27 -8z m-9099 -25 c-4 -26 -3 -34 6 -29 6 4
9 12 6 17 -4 5 1 9 9 9 9 0 16 7 16 16 0 8 5 12 10 9 6 -4 8 -10 5 -15 -3 -4
2 -10 10 -14 17 -6 21 -56 4 -56 -6 0 -8 8 -4 19 3 11 1 22 -5 26 -6 3 -10 -3
-10 -15 0 -18 -5 -21 -32 -18 -31 3 -33 5 -30 38 4 34 9 50 17 50 2 0 1 -16
-2 -37z m-23 -5 c0 -22 -17 -41 -29 -34 -6 4 -11 15 -11 24 0 15 2 15 10 2 8
-13 10 -12 10 3 0 9 5 17 10 17 6 0 10 -6 10 -12z m5420 -35 c0 -16 -15 -149
-34 -298 -19 -148 -49 -397 -67 -552 -19 -156 -37 -283 -40 -283 -4 0 -109
141 -233 313 -125 171 -255 350 -289 397 -34 47 -63 88 -65 92 -2 4 18 17 45
29 86 39 577 279 623 304 57 31 60 31 60 -2z m-4680 -109 c0 -7 -10 -19 -22
-25 -22 -11 -22 -11 -6 7 13 15 14 23 6 39 -10 18 -10 19 5 6 9 -7 17 -19 17
-27z m8231 -14 c12 -7 19 -21 19 -40 0 -24 -5 -31 -27 -36 -32 -8 -57 6 -61
35 -7 48 23 65 69 41z m-9092 -47 c5 -10 22 -18 37 -18 21 -1 30 -8 35 -26 6
-22 7 -21 8 8 1 36 16 52 24 24 3 -13 18 -21 53 -26 53 -9 63 -11 67 -15 1 -1
20 -4 42 -6 73 -6 83 -11 77 -39 -4 -22 -9 -25 -48 -25 -23 0 -46 5 -49 10 -3
6 -19 10 -36 10 -23 0 -29 5 -30 23 -1 16 -2 18 -6 5 -5 -20 -11 -21 -73 -7
-54 12 -79 16 -102 18 -10 0 -18 9 -18 19 0 14 -2 15 -10 2 -9 -13 -11 -13
-20 0 -13 19 -13 30 0 30 6 0 10 7 10 15 0 20 27 19 39 -2z m4381 -9 c83 -19
106 -36 174 -128 55 -75 459 -656 581 -836 39 -58 127 -185 195 -283 198 -282
330 -478 330 -489 0 -5 -8 -7 -17 -4 -22 6 -440 86 -453 86 -5 0 -46 55 -92
123 -47 67 -118 172 -160 232 -132 194 -438 645 -556 820 -138 205 -137 204
-156 185 -18 -19 -8 -51 76 -244 l61 -138 -42 -312 c-24 -171 -48 -349 -54
-396 -9 -65 -16 -85 -27 -84 -40 4 -326 58 -332 63 -10 8 178 1325 192 1352
17 31 107 66 178 68 18 1 64 -6 102 -15z m-3552 -168 c-2 -14 -12 -22 -28 -24
-23 -2 -24 -2 -7 12 15 11 16 18 8 35 -17 30 -13 36 9 16 12 -11 20 -28 18
-39z m8255 4 c16 -19 16 -21 1 -27 -20 -8 -48 8 -52 31 -5 23 30 21 51 -4z
m141 -22 c9 -22 15 -27 15 -15 1 11 7 17 14 14 6 -2 11 -10 9 -17 -3 -11 0
-11 12 -1 12 10 26 9 73 -4 39 -12 59 -13 61 -6 8 25 23 9 20 -21 -2 -26 -8
-33 -25 -33 -11 0 -25 -3 -29 -7 -12 -13 -34 -9 -34 5 0 9 -23 19 -57 27 -32
7 -64 18 -70 23 -7 5 -20 7 -28 3 -8 -3 -15 -3 -15 0 0 7 33 64 37 64 2 0 9
-15 17 -32z m-9170 -83 c-6 -34 -8 -36 -42 -33 -29 2 -38 8 -43 28 -6 21 -14
11 -10 -12 0 -5 -4 -8 -10 -8 -6 0 -9 10 -7 23 2 12 9 22 16 21 6 -1 26 -2 43
-2 23 -2 30 -6 25 -17 -3 -8 -2 -15 3 -15 5 0 11 14 15 32 3 17 9 29 12 26 3
-3 2 -22 -2 -43z m36 6 c0 -6 -5 -13 -10 -16 -8 -5 -7 -11 1 -21 9 -10 9 -14
0 -14 -15 0 -25 26 -17 45 6 16 26 21 26 6z m5713 -92 c84 -17 155 -34 159
-38 4 -3 -2 -85 -13 -181 -11 -96 -42 -386 -69 -645 -61 -576 -59 -561 -75
-543 -20 21 -245 359 -265 399 -18 35 -18 41 10 300 44 394 81 712 85 727 6
16 -7 17 168 -19z m3265 4 c-4 -22 -58 -31 -58 -10 0 20 10 27 37 27 18 0 24
-5 21 -17z m150 -1 c8 -6 10 -19 6 -41 -5 -22 -9 -29 -15 -19 -4 7 -4 17 1 22
12 12 13 26 2 26 -5 0 -13 -12 -19 -27 -11 -28 -11 -28 -12 10 -1 37 10 46 37
29z m107 -48 c28 -3 58 -11 68 -16 13 -6 17 -5 17 7 0 9 5 13 11 9 6 -3 9 -15
6 -25 -3 -11 -1 -19 4 -19 5 0 9 7 9 15 0 8 5 15 10 15 6 0 10 -4 10 -9 0 -5
6 -9 13 -8 38 1 47 -4 47 -29 0 -25 -2 -26 -32 -20 -18 4 -57 10 -85 13 -29 3
-53 10 -53 16 0 6 -8 3 -18 -6 -22 -20 -37 -11 -19 11 10 13 8 14 -15 9 -37
-10 -58 1 -58 30 0 18 4 23 18 19 9 -3 40 -8 67 -12z m-8555 -4 c0 -5 -4 -10
-10 -10 -5 0 -10 5 -10 10 0 6 5 10 10 10 6 0 10 -4 10 -10z m8310 -105 c0
-14 -38 -44 -62 -50 -34 -9 -37 6 -8 35 18 18 70 29 70 15z m-8937 -13 c9 -13
-5 -64 -19 -69 -8 -3 -22 -2 -31 2 -16 7 -15 9 7 15 16 5 19 8 8 9 -18 1 -25
31 -11 44 9 9 41 9 46 -1z m587 -116 c0 -8 -7 -19 -15 -26 -10 -9 -15 -9 -15
-1 0 6 5 11 11 11 6 0 8 9 4 21 -5 15 -4 19 4 15 6 -4 11 -13 11 -20z m8300
-71 c0 -8 -4 -15 -10 -15 -5 0 -10 7 -10 15 0 8 5 15 10 15 6 0 10 -7 10 -15z
m-8973 -40 c-9 -8 -23 -15 -31 -15 -9 0 -16 -7 -16 -16 0 -8 -4 -13 -9 -10
-18 11 1 46 25 46 12 0 26 5 29 11 4 6 9 8 12 5 3 -3 -2 -12 -10 -21z m49 -45
c8 0 14 -4 14 -10 0 -16 -40 -12 -46 5 -5 11 -11 12 -25 4 -10 -5 -19 -7 -19
-4 0 3 0 7 0 10 0 3 3 4 6 3 3 -2 10 5 16 15 9 18 11 18 25 -2 8 -12 21 -21
29 -21z m44 26 c20 -1 26 -7 28 -28 2 -16 -2 -28 -8 -28 -7 0 -9 8 -5 20 4 11
2 20 -4 20 -6 0 -11 -7 -11 -15 0 -8 -4 -15 -10 -15 -5 0 -10 9 -10 20 0 11
-3 19 -7 19 -24 -4 -43 2 -38 12 4 6 14 7 24 3 9 -4 27 -7 41 -8z m540 -112
c0 -7 -10 -19 -22 -25 -22 -11 -22 -11 -6 7 13 15 14 23 6 39 -10 18 -10 19 5
6 9 -7 17 -19 17 -27z m3888 -284 c29 -44 107 -156 173 -250 65 -94 119 -173
119 -176 0 -3 -8 -3 -17 0 -10 3 -100 21 -201 40 -100 20 -186 37 -190 40 -5
3 4 96 20 208 15 112 27 206 28 211 1 20 20 0 68 -73z m4432 42 c0 -10 5 -23
11 -29 21 -21 3 -44 -28 -37 -40 9 -43 15 -28 52 15 34 45 44 45 14z m195 -42
c3 -5 1 -10 -5 -10 -6 0 -8 -4 -5 -10 9 -15 25 -12 25 5 0 8 5 15 10 15 6 0
10 -6 10 -14 0 -15 27 -29 40 -21 5 3 21 0 36 -5 21 -8 29 -8 36 2 7 10 11 10
21 -2 6 -8 18 -15 25 -16 29 -2 32 -5 32 -30 0 -22 -3 -25 -22 -20 -13 3 -29
6 -35 6 -7 0 -13 9 -13 20 0 11 -4 20 -10 20 -5 0 -10 -7 -10 -16 0 -13 -6
-15 -32 -9 -18 3 -39 8 -46 9 -8 1 -18 9 -23 17 -5 8 -9 10 -9 4 0 -13 -58
-17 -65 -5 -4 6 1 10 11 10 13 0 14 3 4 15 -13 16 -7 45 9 45 5 0 13 -4 16
-10z m-9218 -161 c12 -12 6 -49 -9 -49 -6 0 -8 9 -5 20 3 11 1 20 -4 20 -5 0
-9 -7 -9 -15 0 -8 -3 -15 -7 -15 -5 0 -8 11 -8 25 0 26 22 34 42 14z m600 -85
c-3 -3 -12 -4 -19 -1 -8 3 -5 6 6 6 11 1 17 -2 13 -5z m8408 -69 c-2 -28 -30
-30 -49 -4 -14 21 -14 24 1 41 15 17 17 17 33 1 9 -10 16 -27 15 -38z m-8420
35 c3 -5 1 -10 -4 -10 -6 0 -11 5 -11 10 0 6 2 10 4 10 3 0 8 -4 11 -10z m0
-30 c3 -5 -1 -10 -9 -10 -9 0 -16 5 -16 10 0 6 4 10 9 10 6 0 13 -4 16 -10z
m1513 -22 c30 -15 58 -41 78 -69 32 -48 109 -246 202 -524 50 -147 60 -170 80
-173 15 -2 25 4 31 20 6 13 26 131 46 263 20 132 42 269 48 305 12 65 12 65
43 62 17 -2 53 -8 80 -15 59 -15 58 6 15 -272 -78 -508 -68 -466 -128 -512
-32 -25 -45 -28 -107 -27 -78 0 -145 27 -181 71 -11 13 -35 68 -53 121 -62
179 -164 456 -194 530 -29 71 -31 73 -62 70 l-31 -3 -18 -100 c-9 -55 -33
-192 -52 -305 -47 -276 -40 -253 -78 -245 -120 23 -127 26 -127 53 0 15 18
133 40 262 23 129 46 269 51 310 17 117 43 163 114 196 44 21 145 12 203 -18z
m7110 20 c20 -20 14 -56 -10 -64 -27 -8 -47 16 -40 51 5 27 30 33 50 13z m92
-40 c0 -15 3 -19 8 -11 14 22 52 4 52 -24 0 -23 -3 -25 -27 -19 -16 4 -34 7
-40 8 -7 1 -14 11 -14 22 -1 17 -2 18 -6 4 -2 -10 -13 -18 -24 -18 -14 0 -19
7 -19 26 0 23 3 26 25 22 14 -3 25 -1 25 3 0 5 5 9 10 9 6 0 10 -10 10 -22z
m158 -39 c0 -16 -4 -31 -9 -34 -5 -4 -9 4 -10 17 l0 23 -9 -22 c-8 -18 -14
-21 -32 -14 -14 5 -24 18 -26 32 -3 22 1 24 41 25 42 1 44 -1 45 -27z m-8898
-116 c0 -10 -4 -14 -8 -8 -4 6 -11 13 -16 18 -5 4 -2 7 7 7 10 0 17 -8 17 -17z
m2614 -48 c312 -64 324 -68 377 -113 53 -46 82 -104 82 -167 0 -73 -18 -119
-65 -160 l-40 -37 26 -48 c49 -91 27 -215 -51 -279 -35 -29 -118 -61 -156 -61
-21 0 -470 85 -541 102 l-38 9 7 66 c9 85 12 93 39 93 12 0 128 -20 258 -45
130 -25 249 -45 263 -45 33 0 75 41 75 73 0 41 -34 73 -97 90 -32 9 -146 32
-253 52 -107 20 -199 40 -204 45 -6 6 -4 37 3 80 12 65 15 70 39 70 14 0 130
-21 258 -46 219 -43 234 -44 262 -30 55 29 55 91 0 120 -26 13 -505 116 -542
116 -5 0 -6 27 -3 60 8 70 17 110 25 110 3 0 127 -25 276 -55z m5773 25 c-3
-11 -2 -20 2 -20 3 0 12 9 19 20 12 20 52 28 52 11 0 -6 -13 -18 -30 -28 -16
-9 -30 -21 -30 -25 0 -4 -7 -8 -15 -8 -15 0 -20 26 -9 54 9 23 17 20 11 -4z
m153 -41 c0 -24 -4 -29 -22 -28 -17 0 -19 2 -8 7 16 8 19 29 7 49 -6 9 -3 11
7 7 10 -4 16 -18 16 -35z m-8560 15 c0 -8 -4 -12 -10 -9 -5 3 -10 10 -10 16 0
5 5 9 10 9 6 0 10 -7 10 -16z m8726 -11 c16 -6 16 -7 -2 -14 -17 -7 -17 -8 4
-8 26 -1 30 -21 4 -21 -10 0 -24 -6 -31 -12 -11 -11 -13 -10 -7 5 3 10 6 27 6
38 0 21 1 22 26 12z m100 -47 c1 0 6 -10 13 -21 10 -18 10 -16 5 9 -5 21 -4
27 5 22 6 -4 11 -15 12 -24 0 -11 3 -12 6 -4 7 18 43 15 66 -5 17 -16 19 -17
16 -1 -2 9 -1 17 4 17 23 2 27 -2 27 -33 0 -33 -1 -33 -32 -27 -24 5 -32 12
-30 24 4 21 -14 22 -22 2 -4 -12 -11 -13 -23 -7 -10 5 -24 7 -31 5 -8 -3 -16
4 -19 16 -6 24 -23 29 -23 7 0 -18 -52 -15 -58 3 -5 15 37 31 63 24 11 -3 20
-6 21 -7z m-5318 -100 c52 -26 96 -80 112 -137 12 -39 85 -419 95 -494 10 -67
21 -85 51 -85 23 0 36 22 150 254 92 188 134 263 159 285 133 116 346 5 345
-180 -1 -55 -10 -138 -51 -451 -26 -202 -15 -188 -124 -166 l-58 11 7 71 c3
39 20 180 38 313 31 237 31 243 13 263 -38 42 -55 25 -140 -140 -177 -342
-205 -389 -250 -416 -46 -26 -113 -32 -162 -13 -34 12 -80 55 -98 89 -10 20
-125 580 -125 611 0 16 -33 39 -55 39 -32 0 -41 -20 -49 -105 -5 -50 -72 -532
-76 -541 -1 -3 -153 26 -157 30 -5 5 76 595 88 647 13 51 48 99 89 120 51 28
138 25 198 -5z m4952 -23 c3 -3 -4 -9 -14 -15 -10 -6 -27 -19 -37 -29 -26 -26
-29 -24 -29 20 l0 40 38 -6 c20 -3 39 -8 42 -10z m87 -63 c-6 -16 -16 -26 -23
-23 -10 4 -10 10 3 29 9 15 11 24 4 24 -6 0 -11 5 -11 10 0 6 7 6 19 -1 15
-10 16 -17 8 -39z m-86 18 c-5 -14 -17 -24 -30 -24 -17 -1 -18 -1 -2 3 10 2
21 13 24 24 3 10 8 19 11 19 3 0 2 -10 -3 -22z m248 -19 c10 -18 15 -19 22 -8
6 9 9 1 8 -26 l0 -40 -23 29 c-22 26 -24 27 -29 10 -3 -10 -5 -2 -6 19 -1 42
8 47 28 16z m114 -28 c21 -5 37 -5 37 0 0 5 5 9 10 9 6 0 10 -7 10 -15 0 -8 9
-15 19 -15 12 0 21 -8 24 -22 3 -17 5 -14 6 10 0 17 6 32 12 32 8 0 9 -12 5
-32 l-6 -33 15 25 15 25 -2 -25 c-3 -22 -8 -25 -43 -25 -33 0 -39 3 -37 18 2
9 -1 17 -7 17 -5 0 -12 -8 -14 -17 -4 -15 -6 -15 -12 5 -9 27 -13 27 -32 5
-14 -17 -14 -17 -9 -1 3 10 1 20 -4 23 -6 4 -10 -1 -10 -10 0 -26 -44 -15 -48
13 -4 25 9 27 71 13z m-8903 -11 c0 -7 6 -7 20 0 25 13 26 2 3 -16 -11 -8 -13
-13 -5 -14 6 0 12 -5 12 -11 0 -8 -4 -8 -14 0 -7 6 -22 8 -32 4 -16 -6 -17 -4
-7 8 10 12 10 18 1 27 -9 9 -8 12 5 12 9 0 17 -5 17 -10z m9059 -64 c-9 -8
-10 -7 -5 7 3 10 7 24 7 30 1 7 3 4 6 -7 3 -10 -1 -23 -8 -30z m-4149 -71
c314 -57 362 -74 419 -142 39 -47 65 -132 56 -181 -10 -53 -42 -109 -73 -129
-15 -9 -28 -18 -30 -19 -2 -1 10 -21 27 -44 101 -139 -9 -340 -186 -340 -48 0
-510 84 -549 99 -19 9 -20 13 -12 82 5 40 11 75 13 78 5 5 216 -30 389 -65
144 -29 161 -29 186 -4 35 35 25 93 -21 128 -15 11 -170 44 -407 87 -50 10
-94 20 -97 25 -6 11 15 133 25 144 5 5 101 -8 232 -33 123 -23 238 -41 257
-41 45 0 71 24 71 66 0 47 -34 69 -137 88 -341 62 -436 82 -440 93 -3 7 0 44
7 83 l12 71 31 -6 c18 -3 120 -21 227 -40z m3606 15 c27 0 14 -19 -21 -30 -43
-14 -46 -30 -6 -30 20 0 31 6 34 18 3 12 5 13 6 2 2 -30 -14 -40 -52 -33 -36
5 -37 7 -37 46 0 39 0 39 31 33 17 -3 38 -6 45 -6z m99 -30 c9 -15 -6 -60 -21
-60 -18 0 -18 8 1 27 12 12 13 18 4 29 -8 9 -8 14 -1 14 6 0 13 -4 17 -10z
m-8970 -40 c7 -12 -12 -50 -26 -50 -13 0 -22 27 -15 45 6 17 32 20 41 5z
m6271 -175 c121 -25 235 -49 254 -53 l35 -8 -3 -70 c-2 -38 -6 -71 -9 -74 -2
-3 -111 17 -241 43 -130 26 -243 48 -249 47 -24 0 -53 -40 -53 -71 0 -20 9
-40 28 -58 23 -24 47 -31 172 -55 80 -15 165 -37 190 -47 124 -54 183 -185
141 -311 -16 -49 -88 -114 -142 -128 -51 -14 -44 -15 -349 48 l-235 48 0 71
c0 39 3 75 8 79 4 4 109 -14 235 -41 295 -63 286 -61 311 -36 27 27 28 80 1
108 -25 27 -58 38 -211 67 -129 25 -183 45 -237 90 -96 82 -96 279 0 348 33
23 93 47 119 48 10 0 115 -20 235 -45z m2597 -25 c4 0 7 -4 7 -9 0 -5 -16 -5
-37 0 -21 4 -39 6 -41 4 -3 -2 9 -7 24 -10 16 -4 35 -8 42 -11 18 -5 14 -34
-5 -35 -17 -1 -17 -2 0 -6 9 -2 17 -9 17 -15 0 -9 -74 -2 -92 9 -9 5 -11 77
-2 85 3 3 22 2 42 -3 20 -5 40 -9 45 -9z m261 -56 c11 -4 13 -10 7 -18 -5 -6
-11 -22 -14 -36 -4 -21 -4 -20 -6 8 0 17 -5 32 -11 32 -5 0 -10 5 -10 10 0 11
11 13 34 4z m-2319 -28 c60 -12 60 -12 58 -47 -4 -86 -54 -667 -59 -692 -5
-24 -10 -27 -32 -23 -15 3 -46 8 -69 11 -24 4 -45 10 -47 13 -2 4 2 72 9 152
36 384 55 592 55 596 0 6 21 4 85 -10z m2445 -43 c0 -13 -4 -23 -10 -23 -5 0
-10 9 -10 20 0 27 -14 25 -28 -2 l-11 -23 -6 22 c-7 21 -35 41 -35 24 0 -5 6
-11 13 -14 6 -2 9 -7 6 -11 -11 -11 -39 5 -39 23 0 27 6 28 65 18 48 -9 55
-13 55 -34z m21 2 c-9 -30 -9 -30 -10 10 -1 25 2 36 9 29 6 -6 6 -21 1 -39z
m-8979 20 c22 6 22 5 4 -9 -16 -13 -17 -18 -6 -31 8 -9 8 -15 2 -15 -6 0 -14
5 -17 10 -4 6 -16 8 -28 4 -19 -6 -20 -5 -9 8 7 9 9 24 5 34 -6 17 -5 17 10 6
9 -8 26 -11 39 -7z m9048 -30 c0 -13 -5 -27 -10 -30 -17 -11 -50 5 -50 24 0
23 4 26 34 29 21 1 26 -3 26 -23z m-1904 -76 c131 -27 240 -52 242 -54 6 -6
-10 -145 -17 -145 -4 0 -90 18 -191 41 -235 52 -284 57 -310 34 -28 -25 -26
-76 3 -102 29 -26 37 -29 200 -64 76 -16 155 -38 176 -49 77 -39 133 -132 133
-220 0 -131 -97 -220 -226 -207 -73 7 -487 94 -496 104 -7 7 5 141 13 149 2 2
41 -5 87 -16 411 -92 402 -91 427 -75 31 20 45 50 37 79 -12 48 -42 62 -204
96 -85 18 -171 41 -191 50 -172 88 -187 337 -24 411 22 10 54 19 72 19 17 0
139 -23 269 -51z m1407 -97 c23 -20 22 -65 -3 -87 -17 -15 -24 -16 -49 -5 -54
22 -59 90 -8 109 23 9 32 7 60 -17z m227 -82 c5 0 11 8 13 18 3 9 5 -2 6 -25
1 -49 -3 -52 -30 -20 -16 19 -18 19 -19 5 0 -10 -4 -18 -10 -18 -12 0 -12 6
-3 51 6 33 6 33 21 11 8 -12 18 -22 22 -22z m120 -18 c0 -14 7 -17 33 -15 45
5 60 -7 48 -38 l-10 -24 -1 25 c-1 24 -1 24 -15 6 -15 -19 -15 -19 -15 2 0 12
-4 22 -10 22 -5 0 -10 -8 -10 -19 0 -18 -11 -18 -97 5 -7 2 -13 13 -13 24 0
23 38 28 58 8 9 -9 12 -8 12 5 0 9 5 17 10 17 6 0 10 -8 10 -18z m-6032 -47
c9 -9 -28 -236 -43 -265 -37 -72 -101 -90 -229 -64 l-86 17 0 34 c0 18 6 36
13 39 7 2 45 -2 85 -11 82 -17 128 -11 147 19 7 11 18 59 24 106 20 146 19
143 54 136 17 -3 33 -8 35 -11z m6189 0 c1 -5 -2 -17 -7 -25 -9 -13 -11 -13
-20 0 -8 13 -10 13 -10 1 0 -11 -3 -12 -11 -4 -18 18 -2 45 23 41 12 -2 23 -7
25 -13z m69 -11 c-3 -9 -6 -20 -6 -25 0 -5 -14 -9 -31 -9 -24 0 -30 3 -25 16
3 9 6 20 6 25 0 5 14 9 31 9 24 0 30 -3 25 -16z m-5935 -44 c10 -6 25 -23 33
-38 18 -35 109 -363 102 -369 -3 -3 -22 -1 -42 4 l-37 8 -42 160 c-27 106 -46
161 -56 163 -9 1 -44 -49 -94 -133 l-80 -136 -38 5 c-21 2 -41 6 -43 9 -5 5
168 289 194 320 17 19 72 23 103 7z m351 -65 c12 -5 13 -19 2 -93 -6 -48 -17
-131 -24 -184 l-13 -98 -33 0 c-18 0 -35 4 -38 9 -4 5 6 91 21 190 25 173 28
181 49 181 12 0 29 -2 36 -5z m204 -50 c4 -8 -1 -67 -10 -130 -22 -147 -14
-163 79 -179 22 -4 64 -11 93 -17 55 -11 56 -13 37 -75 -3 -8 -30 -6 -97 7
-201 41 -218 65 -188 276 11 70 19 129 19 131 3 10 63 -1 67 -13z m4784 -5
c21 -21 26 -40 12 -40 -5 0 -17 9 -27 20 -25 27 -47 26 -43 -2 2 -18 9 -23 31
-21 18 1 27 -2 24 -10 -4 -14 -85 -18 -93 -5 -3 5 -1 15 5 22 6 7 8 16 4 19
-11 11 19 37 43 37 13 0 33 -9 44 -20z m213 -50 c-28 -11 -30 -36 -5 -49 14
-7 21 -5 31 11 8 13 18 17 29 13 9 -4 37 -8 61 -10 61 -5 101 -23 101 -46 0
-24 -20 -25 -21 -1 -1 16 -2 16 -6 0 -6 -26 -23 -22 -24 5 -1 16 -2 18 -6 5
-6 -25 -23 -22 -23 3 0 21 0 21 -19 -2 l-20 -24 -9 24 c-7 21 -9 22 -15 7 -5
-12 -13 -16 -25 -11 -9 4 -28 8 -40 10 -13 1 -31 9 -39 18 -20 20 -1 57 30 56
l22 0 -22 -9z m266 -63 c14 -1 21 -9 22 -22 1 -18 2 -18 6 -2 4 16 11 18 39
12 21 -3 34 -2 34 5 0 5 5 10 10 10 13 0 13 -50 0 -70 -8 -12 -10 -9 -10 13 0
23 -4 27 -30 27 -23 0 -30 -5 -30 -19 0 -29 -47 -15 -59 18 l-9 26 -1 -24 c-1
-33 -7 -24 -15 24 -6 36 -5 38 8 22 8 -10 23 -19 35 -20z m-4514 -11 c162 -31
170 -33 173 -57 4 -46 -7 -51 -86 -36 -40 8 -72 11 -72 8 0 -15 -31 -248 -35
-268 -4 -16 -13 -23 -28 -23 -49 0 -50 7 -31 152 9 75 14 142 11 151 -4 10
-26 17 -64 22 -33 3 -64 10 -70 13 -17 11 -3 72 16 71 9 0 93 -15 186 -33z
m4577 -58 c-9 -9 -12 -7 -12 12 0 19 3 21 12 12 9 -9 9 -15 0 -24z m-4111 -33
c84 -18 127 -42 152 -83 40 -69 29 -196 -22 -251 -40 -42 -85 -52 -175 -36
-138 24 -186 72 -186 186 0 107 33 167 105 191 32 10 49 9 126 -7z m3545 -91
c18 -15 18 -15 -6 -9 -44 11 -52 10 -64 -7 -17 -28 5 -54 44 -50 19 1 29 -2
25 -8 -9 -14 -58 -13 -73 2 -7 7 -12 24 -12 38 0 48 46 66 86 34z m-2963 -22
c88 -39 111 -82 105 -192 -8 -133 -52 -177 -172 -167 -96 8 -140 22 -181 58
-42 37 -59 94 -51 164 10 78 24 108 64 138 35 27 42 29 112 25 47 -3 93 -13
123 -26z m3192 -32 c3 -5 1 -10 -4 -10 -6 0 -11 -13 -11 -30 0 -16 -5 -30 -11
-30 -6 0 -9 13 -7 30 2 19 -3 34 -12 40 -12 8 -9 10 12 10 15 0 30 -4 33 -10z
m-2887 -25 c3 -2 -1 -60 -8 -128 -9 -93 -10 -129 -1 -145 12 -22 51 -36 136
-48 71 -10 83 -17 77 -53 -5 -36 -2 -35 -110 -16 -184 32 -202 65 -171 311
l12 96 30 -6 c17 -3 33 -8 35 -11z m2992 1 c0 -8 11 -17 25 -20 25 -6 35 -39
15 -51 -5 -3 -10 3 -10 14 0 12 -4 21 -9 21 -5 0 -7 -10 -3 -22 5 -20 4 -21
-18 -5 -12 8 -28 13 -35 11 -8 -3 -12 4 -12 21 0 20 2 23 13 14 11 -9 14 -7
14 10 0 11 5 21 10 21 6 0 10 -6 10 -14z m-67 -7 c-6 -6 -9 -17 -7 -24 7 -17
-8 -26 -25 -16 -20 13 -4 51 22 51 15 0 18 -3 10 -11z m163 -32 c17 6 18 -2 4
-27 -14 -26 -40 -14 -40 18 0 19 3 23 11 15 6 -6 18 -9 25 -6z m74 3 c0 -5 -4
-10 -10 -10 -5 0 -10 -12 -11 -27 0 -27 -1 -27 -11 -6 -8 17 -8 26 2 38 14 17
30 20 30 5z m70 -30 c14 -4 19 -8 13 -9 -7 -1 -13 -9 -13 -18 0 -15 -2 -14
-16 3 -13 16 -15 16 -10 2 7 -23 -26 -25 -44 -3 -25 30 12 44 70 25z m-578
-211 c-2 -24 -7 -47 -10 -51 -4 -3 -25 -3 -47 1 -39 6 -40 7 -43 50 -5 67 -1
71 55 57 l48 -13 -3 -44z m198 -19 c0 -5 -8 -7 -17 -3 -16 6 -16 4 1 -16 13
-15 22 -18 27 -10 4 6 11 9 17 5 6 -3 37 -9 68 -12 32 -3 62 -8 66 -10 4 -3 8
3 8 13 1 17 1 17 11 0 6 -10 8 -24 6 -31 -3 -8 0 -19 6 -25 6 -6 7 -14 3 -18
-4 -5 -14 1 -22 11 -8 11 -14 14 -14 8 0 -25 -40 -12 -55 18 -9 17 -20 30 -25
30 -16 0 -12 -17 5 -24 8 -3 15 -10 15 -16 0 -14 -43 -2 -49 12 -2 6 -7 4 -11
-3 -7 -10 -12 -10 -22 -1 -8 6 -23 9 -35 6 -11 -3 -24 -1 -27 5 -4 6 0 11 9
11 14 0 14 2 0 23 -8 13 -12 27 -8 30 10 11 43 8 43 -3z m-8942 -232 c18 -18
14 -53 -7 -72 -26 -23 -52 -17 -70 16 -14 24 -14 28 3 47 21 23 56 27 74 9z
m8695 -24 c37 -6 38 -7 35 -48 -3 -39 -4 -41 -36 -39 -18 0 -44 4 -58 7 -26 7
-27 15 -15 94 1 2 9 1 19 -2 9 -3 34 -8 55 -12z m297 -61 c2 -2 -1 -7 -7 -11
-6 -4 -15 -20 -18 -35 -9 -36 -26 -35 -19 2 4 21 2 30 -11 34 -26 11 -7 28 23
21 15 -4 29 -9 32 -11z m130 -43 c5 -8 9 -7 13 4 4 9 13 16 22 16 11 0 15 -12
16 -42 1 -24 4 -33 6 -20 7 36 63 25 63 -12 0 -31 -7 -36 -39 -25 -26 9 -60
15 -104 18 -13 1 -16 7 -11 26 3 14 2 25 -4 25 -5 0 -12 -9 -15 -19 -4 -16
-11 -18 -43 -14 -47 6 -58 15 -50 40 5 17 15 19 73 17 36 -2 69 -8 73 -14z
m-433 -174 c-3 -8 -1 -16 5 -18 8 -3 7 -10 -1 -26 -9 -16 -21 -22 -46 -22 -42
0 -43 8 -7 48 28 32 58 43 49 18z m97 -12 c21 -8 21 -63 0 -71 -8 -3 -20 -1
-27 6 -8 8 -5 11 14 11 19 0 21 2 9 10 -10 6 -11 10 -2 10 6 0 12 5 12 10 0 6
-7 10 -15 10 -8 0 -15 5 -15 10 0 12 3 12 24 4z m-8842 -49 c9 -19 8 -29 -6
-50 -9 -14 -24 -25 -34 -25 -24 0 -59 26 -49 36 4 4 13 2 19 -4 19 -19 46 -14
53 9 10 31 -9 45 -40 31 -26 -12 -33 -4 -13 16 21 21 57 14 70 -13z m9023 -7
c12 -27 14 -29 15 -11 0 12 5 25 12 29 8 5 9 0 5 -17 -4 -13 -7 -33 -7 -44 -1
-19 -2 -19 -20 4 -15 18 -20 19 -20 7 0 -9 -4 -16 -10 -16 -5 0 -9 18 -8 40 2
48 14 51 33 8z m-9055 -13 c0 -8 -7 -15 -15 -15 -16 0 -20 12 -8 23 11 12 23
8 23 -8z m9145 -6 c11 -17 -3 -23 -20 -9 -8 7 -15 8 -15 2 0 -5 7 -12 15 -16
22 -8 19 -26 -4 -26 -25 0 -34 14 -26 40 7 21 39 27 50 9z m29 -21 c-4 -30 -3
-31 6 -9 9 20 15 22 45 17 22 -4 35 -3 35 4 0 5 5 10 10 10 6 0 10 -9 10 -21
0 -15 -5 -19 -17 -15 -10 3 -25 1 -33 -4 -10 -6 -11 -10 -2 -10 6 0 12 -5 12
-11 0 -5 -4 -8 -9 -4 -5 3 -23 7 -41 9 -39 4 -42 8 -34 40 9 37 24 32 18 -6z
m166 2 c-13 -9 -13 -11 0 -20 8 -5 20 -11 25 -14 6 -2 3 -11 -7 -21 -9 -10
-21 -14 -28 -10 -9 6 -9 9 1 16 11 6 11 11 1 21 -18 18 -15 38 6 38 14 0 15
-2 2 -10z m54 -58 c-6 -20 -24 -32 -24 -14 1 23 14 52 21 45 5 -5 6 -18 3 -31z
m-114 7 c0 -6 -4 -7 -10 -4 -5 3 -10 11 -10 16 0 6 5 7 10 4 6 -3 10 -11 10
-16z m150 11 c0 -5 8 -6 17 -3 13 5 15 2 10 -11 -4 -10 -7 -21 -7 -25 0 -5
-11 -6 -25 -3 -26 5 -29 10 -19 36 7 17 24 22 24 6z m-667 -76 c7 -7 -30 -44
-45 -44 -4 0 -8 -4 -8 -10 0 -17 38 -11 50 8 10 15 10 15 8 -3 -3 -21 -45 -32
-75 -20 -13 5 -10 12 17 40 35 36 42 40 53 29z m110 -51 c3 -16 1 -32 -4 -37
-6 -6 -9 -6 -9 2 0 7 -7 12 -15 12 -18 0 -18 5 -5 31 15 27 27 24 33 -8z m195
-27 c14 18 14 18 8 -6 -3 -14 -6 -32 -6 -40 -1 -11 -6 -8 -20 9 -15 18 -20 19
-20 7 0 -9 -4 -16 -10 -16 -12 0 -12 6 -3 50 l6 33 15 -29 c14 -27 15 -27 30
-8z m92 -37 c0 -24 -4 -38 -10 -34 -5 3 -10 22 -10 41 0 19 5 34 10 34 6 0 10
-18 10 -41z m-50 9 c0 6 5 12 10 12 6 0 10 -13 10 -29 0 -24 -3 -28 -20 -24
-26 7 -32 17 -24 38 5 13 8 14 15 3 7 -10 9 -10 9 0z m112 -8 c29 -8 35 -14
31 -30 -9 -36 -83 -21 -83 16 0 27 2 28 52 14z m118 -52 c0 -10 -5 -18 -11
-18 -6 0 -9 6 -6 14 3 8 -1 20 -8 26 -8 7 -12 17 -8 23 8 13 33 -20 33 -45z
m-50 17 c0 -14 -4 -25 -10 -25 -5 0 -10 11 -10 25 0 14 5 25 10 25 6 0 10 -11
10 -25z m-537 -112 c3 -15 3 -33 0 -40 -5 -13 -74 -19 -86 -6 -8 7 53 72 69
72 7 1 14 -11 17 -26z m107 -32 c0 -17 -4 -33 -10 -36 -5 -3 -10 -1 -10 4 0 6
-7 11 -15 11 -19 0 -19 5 2 30 24 28 33 25 33 -9z m190 -1 c13 -8 12 -10 -2
-10 -13 0 -18 -8 -18 -30 0 -16 -4 -30 -10 -30 -5 0 -10 15 -10 34 0 19 -6 37
-12 39 -7 3 -2 6 12 6 14 0 32 -4 40 -9z m63 -40 c5 -5 5 -19 1 -31 -8 -23 -8
-23 -15 6 -5 23 -7 25 -8 8 0 -12 -6 -25 -12 -29 -8 -5 -10 1 -7 20 6 31 -8
35 -17 5 -10 -29 -17 -17 -9 15 5 22 10 25 33 20 14 -4 30 -10 34 -14z m122
-35 c1 -40 -11 -46 -25 -12 -7 17 -9 18 -9 5 -1 -11 -9 -18 -20 -18 -36 0 -51
12 -50 39 1 20 2 22 6 6 8 -33 23 -42 24 -14 l1 24 8 -25 c7 -21 12 -18 9 6 0
8 44 32 50 27 3 -2 5 -19 6 -38z m66 21 c5 3 9 0 9 -5 0 -6 -4 -11 -10 -11 -5
0 -10 -11 -10 -25 0 -14 -4 -25 -10 -25 -5 0 -10 11 -10 24 0 31 12 64 18 48
2 -7 8 -10 13 -6z m60 -13 c5 -30 4 -65 -3 -69 -4 -3 -8 10 -9 28 -1 29 -2 30
-8 9 -8 -29 -26 -38 -34 -17 -4 10 -1 13 9 9 7 -3 14 0 14 6 0 6 -8 11 -17 11
-14 0 -12 4 7 14 30 17 40 19 41 9z m-627 -137 c10 -39 -2 -56 -39 -56 -47 0
-53 17 -19 51 36 35 50 36 58 5z m106 -36 c0 -25 -5 -40 -12 -40 -8 0 -13 15
-13 40 -1 26 3 40 12 40 8 0 13 -14 13 -40z m149 -64 c-9 -8 -10 -7 -5 7 3 10
7 31 8 45 1 22 2 21 5 -7 3 -19 -1 -38 -8 -45z m41 12 c0 -21 -3 -29 -10 -22
-5 5 -7 19 -4 32 9 31 14 27 14 -10z m30 -3 c0 -14 -4 -25 -10 -25 -5 0 -10
11 -10 25 0 14 5 25 10 25 6 0 10 -11 10 -25z m34 19 c9 -3 16 -12 16 -19 0
-20 42 -26 55 -9 9 13 17 14 51 3 34 -11 40 -16 36 -36 -6 -30 -18 -29 -26 2
-4 16 -13 25 -26 25 -11 0 -20 -4 -20 -9 0 -5 8 -8 17 -7 12 0 19 -7 21 -22 4
-24 -18 -38 -44 -28 -13 5 -14 9 -4 21 12 14 7 19 -13 16 -5 -1 -26 3 -48 9
-32 9 -39 15 -39 35 0 27 1 28 24 19z m56 -24 c0 -5 -7 -7 -15 -4 -8 4 -12 10
-9 15 6 11 24 2 24 -11z m170 -15 c11 -28 28 -33 36 -10 9 21 24 19 24 -4 0
-11 5 -23 10 -26 6 -4 10 5 10 19 0 14 3 26 8 26 4 0 7 -18 7 -40 0 -29 -4
-40 -15 -40 -20 0 -36 11 -43 30 -4 11 -6 10 -6 -4 -1 -16 -3 -16 -17 -5 -13
10 -17 10 -25 -2 -6 -9 -9 1 -9 34 0 53 6 59 20 22z m133 -45 c-3 -8 -7 -22
-9 -30 -5 -13 -6 -13 -14 0 -16 25 -12 49 9 47 12 -1 17 -7 14 -17z m-775
-191 c2 -13 10 -32 18 -43 8 -11 14 -24 14 -28 0 -7 -90 1 -99 8 -3 2 5 14 17
27 12 13 22 33 22 46 0 30 24 22 28 -10z m52 -12 c0 -19 -10 -27 -26 -20 -11
4 -12 9 -3 19 15 18 29 18 29 1z m160 -26 c0 -5 -8 -11 -17 -13 -14 -2 -12 -7
10 -21 23 -15 27 -15 27 -3 0 10 6 13 16 9 9 -3 13 -12 9 -21 -5 -13 -3 -13
13 1 26 24 51 12 48 -21 -3 -27 -5 -28 -41 -16 -11 3 -24 7 -30 9 -5 1 -14 3
-20 5 -5 1 -22 1 -37 0 -16 -1 -28 4 -28 10 0 7 7 10 15 6 19 -7 19 3 -1 25
-9 10 -13 23 -9 28 8 13 45 15 45 2z m220 -61 c20 0 35 -39 20 -54 -5 -5 -22
-4 -41 3 -26 9 -37 8 -55 -3 -21 -15 -22 -14 -26 20 -2 19 -1 39 3 45 11 18
49 0 50 -24 1 -20 2 -20 6 -2 2 11 7 27 10 35 5 12 7 12 10 -2 3 -10 13 -18
23 -18z m-470 -259 c0 -28 -5 -53 -11 -56 -16 -10 -17 -4 -12 53 7 66 23 68
23 3z m40 -12 c0 -44 -3 -60 -12 -56 -7 2 -13 11 -12 20 0 10 1 35 2 57 3 64
22 46 22 -21z m171 -11 c12 -22 12 -22 20 -3 5 15 8 8 8 -22 1 -49 -10 -55
-29 -15 l-13 27 -6 -25 c-10 -36 -24 -8 -16 30 8 36 20 38 36 8z m202 -44 c19
-4 33 -2 35 4 2 8 9 8 23 -1 16 -10 21 -9 29 3 6 10 7 3 3 -22 -4 -25 -2 -38
6 -38 6 0 11 9 11 20 0 21 24 28 35 10 3 -5 22 -10 41 -10 33 0 34 -1 34 -40
0 -44 -17 -59 -47 -41 -10 6 -13 11 -6 11 6 0 9 9 6 20 -4 15 0 20 13 20 16 0
17 2 4 10 -11 7 -17 4 -24 -11 -9 -20 -10 -20 -22 3 -11 20 -13 20 -14 4 0
-12 -5 -16 -16 -12 -9 3 -27 6 -40 6 -20 0 -24 4 -19 19 3 11 1 22 -5 26 -6 3
-10 -3 -10 -14 0 -28 -20 -27 -21 2 l-2 22 -4 -22 c-2 -13 -9 -23 -14 -23 -5
0 -10 10 -10 23 -2 21 -2 21 -6 1 -5 -27 -43 -21 -43 7 0 11 -5 19 -11 19 -6
0 -9 -9 -6 -20 3 -11 1 -20 -4 -20 -5 0 -9 4 -9 9 0 5 -14 8 -32 7 -34 -1 -46
17 -29 43 6 10 13 11 29 2 12 -6 23 -7 26 -2 3 5 15 7 25 4 10 -3 23 1 27 9 7
10 9 9 12 -4 2 -9 17 -20 35 -24z m288 -56 c11 -18 18 -24 15 -13 -3 11 -1 27
4 35 8 13 10 12 11 -5 3 -27 -1 -69 -7 -74 -2 -3 -11 4 -19 15 -9 12 -14 14
-15 6 0 -7 -4 -10 -10 -7 -10 6 -14 75 -5 75 3 0 15 -15 26 -32z m103 -24 c24
-23 20 -44 -8 -44 -37 0 -56 10 -56 29 0 34 37 43 64 15z"/>
<path d="M490 8810 c0 -11 5 -20 10 -20 6 0 10 9 10 20 0 11 -4 20 -10 20 -5
0 -10 -9 -10 -20z"/>
<path d="M1810 8551 c0 -12 28 -22 35 -12 3 5 -2 12 -11 15 -21 8 -24 8 -24
-3z"/>
<path d="M2151 8474 c0 -11 3 -14 6 -6 3 7 2 16 -1 19 -3 4 -6 -2 -5 -13z"/>
<path d="M58 8433 c6 -2 18 -2 25 0 6 3 1 5 -13 5 -14 0 -19 -2 -12 -5z"/>
<path d="M2990 8319 c0 -5 5 -7 10 -4 6 3 10 8 10 11 0 2 -4 4 -10 4 -5 0 -10
-5 -10 -11z"/>
<path d="M465 8051 c-6 -11 9 -23 19 -14 9 9 7 23 -3 23 -6 0 -12 -4 -16 -9z"/>
<path d="M1167 7953 c-9 -9 12 -33 29 -33 8 0 14 9 14 20 0 19 -28 28 -43 13z"/>
<path d="M240 7854 c0 -8 5 -12 10 -9 6 3 10 10 10 16 0 5 -4 9 -10 9 -5 0
-10 -7 -10 -16z"/>
<path d="M365 7600 c3 -5 8 -10 11 -10 2 0 4 5 4 10 0 6 -5 10 -11 10 -5 0 -7
-4 -4 -10z"/>
<path d="M77 7441 c-4 -18 15 -30 49 -31 18 0 27 32 12 42 -24 14 -55 9 -61
-11z"/>
<path d="M8190 7350 c-8 -15 -6 -24 10 -40 11 -11 24 -20 29 -20 19 0 40 31
34 48 -14 36 -56 44 -73 12z m48 -2 c18 -18 14 -38 -7 -38 -24 0 -33 13 -25
34 7 19 16 20 32 4z"/>
<path d="M8220 7330 c0 -5 5 -10 10 -10 6 0 10 5 10 10 0 6 -4 10 -10 10 -5 0
-10 -4 -10 -10z"/>
<path d="M8992 7188 c2 -18 10 -23 33 -23 23 0 31 5 33 23 3 19 -1 22 -33 22
-32 0 -36 -3 -33 -22z"/>
<path d="M357 7150 c3 -11 7 -20 9 -20 2 0 4 9 4 20 0 11 -4 20 -9 20 -5 0 -7
-9 -4 -20z"/>
<path d="M210 6684 c0 -8 5 -12 10 -9 6 4 8 11 5 16 -9 14 -15 11 -15 -7z"/>
<path d="M241 6444 c0 -11 3 -14 6 -6 3 7 2 16 -1 19 -3 4 -6 -2 -5 -13z"/>
<path d="M325 6180 c-3 -5 -1 -10 4 -10 6 0 11 5 11 10 0 6 -2 10 -4 10 -3 0
-8 -4 -11 -10z"/>
<path d="M9366 6027 c3 -10 9 -15 12 -12 3 3 0 11 -7 18 -10 9 -11 8 -5 -6z"/>
<path d="M61 5981 c-8 -6 -9 -11 -3 -15 6 -3 14 -1 17 5 9 14 2 20 -14 10z"/>
<path d="M175 5710 c3 -5 10 -10 16 -10 5 0 9 5 9 10 0 6 -7 10 -16 10 -8 0
-12 -4 -9 -10z"/>
<path d="M9445 5010 c3 -5 8 -10 11 -10 2 0 4 5 4 10 0 6 -5 10 -11 10 -5 0
-7 -4 -4 -10z"/>
<path d="M9230 4750 c0 -15 5 -20 18 -18 9 2 17 10 17 18 0 8 -8 16 -17 18
-13 2 -18 -3 -18 -18z"/>
<path d="M8990 4339 c0 -5 5 -7 10 -4 6 3 10 8 10 11 0 2 -4 4 -10 4 -5 0 -10
-5 -10 -11z"/>
<path d="M9366 4251 c-4 -5 -2 -12 3 -15 5 -4 12 -2 15 3 4 5 2 12 -3 15 -5 4
-12 2 -15 -3z"/>
<path d="M9501 4214 c0 -11 3 -14 6 -6 3 7 2 16 -1 19 -3 4 -6 -2 -5 -13z"/>
<path d="M8975 4119 c-11 -17 1 -21 15 -4 8 9 8 15 2 15 -6 0 -14 -5 -17 -11z"/>
<path d="M8958 3808 c6 -6 18 -8 28 -6 14 3 12 5 -9 10 -19 3 -25 2 -19 -4z"/>
<path d="M8946 3547 c-25 -18 -17 -58 14 -74 34 -17 64 11 55 50 -7 26 -25 38
-25 17 0 -5 -7 -10 -16 -10 -10 0 -14 6 -10 15 7 18 5 19 -18 2z m45 -37 c5 0
9 -5 9 -11 0 -15 -43 -7 -48 10 -3 10 0 12 12 8 10 -4 22 -7 27 -7z"/>
<path d="M9290 3435 c0 -8 5 -15 10 -15 6 0 10 7 10 15 0 8 -4 15 -10 15 -5 0
-10 -7 -10 -15z"/>
<path d="M9542 3389 c2 -7 10 -15 17 -17 8 -3 12 1 9 9 -2 7 -10 15 -17 17 -8
3 -12 -1 -9 -9z"/>
<path d="M9245 3130 c3 -5 11 -10 16 -10 6 0 7 5 4 10 -3 6 -11 10 -16 10 -6
0 -7 -4 -4 -10z"/>
<path d="M9300 3124 c0 -8 5 -12 10 -9 6 4 8 11 5 16 -9 14 -15 11 -15 -7z"/>
<path d="M5286 2928 c-20 -31 -30 -91 -22 -134 6 -30 14 -39 49 -54 51 -22
127 -34 156 -25 50 15 70 138 31 187 -22 29 -85 48 -154 48 -36 0 -49 -5 -60
-22z"/>
<path d="M5824 2848 c-12 -5 -27 -21 -33 -34 -12 -27 -15 -112 -5 -139 11 -27
63 -46 139 -52 69 -5 74 -4 89 18 8 14 18 49 22 80 6 49 4 58 -20 85 -19 24
-39 34 -82 43 -68 13 -82 13 -110 -1z"/>
<path d="M9480 2770 c0 -5 5 -10 10 -10 6 0 10 5 10 10 0 6 -4 10 -10 10 -5 0
-10 -4 -10 -10z"/>
<path d="M8874 2606 c-3 -8 -4 -27 -2 -42 2 -23 9 -30 35 -35 40 -8 43 -5 43
42 0 30 -4 38 -22 43 -35 9 -48 7 -54 -8z m57 -6 c5 0 9 -13 9 -30 0 -25 -4
-30 -24 -30 -14 0 -28 5 -32 11 -5 9 1 10 20 5 14 -3 26 -2 26 3 0 5 -9 11
-20 14 -11 3 -20 13 -20 22 0 12 5 15 16 11 9 -3 20 -6 25 -6z"/>
<path d="M9290 2480 c0 -5 4 -10 9 -10 6 0 13 5 16 10 3 6 -1 10 -9 10 -9 0
-16 -4 -16 -10z"/>
<path d="M154 2296 c-10 -26 4 -48 28 -44 17 2 23 10 23 28 0 18 -6 26 -23 28
-13 2 -25 -3 -28 -12z m36 -16 c0 -5 -2 -10 -4 -10 -3 0 -8 5 -11 10 -3 6 -1
10 4 10 6 0 11 -4 11 -10z"/>
<path d="M8850 2272 c0 -24 32 -37 71 -29 18 3 14 6 -18 12 -24 4 -43 11 -43
15 0 4 17 4 37 -1 36 -8 52 -5 40 7 -3 3 -24 8 -46 11 -37 5 -41 3 -41 -15z"/>
<path d="M8851 2226 c10 -9 79 -14 79 -5 0 5 -19 9 -42 9 -23 0 -39 -2 -37 -4z"/>
<path d="M9331 2154 c0 -11 3 -14 6 -6 3 7 2 16 -1 19 -3 4 -6 -2 -5 -13z"/>
<path d="M9420 2140 c0 -5 5 -10 11 -10 5 0 7 5 4 10 -3 6 -8 10 -11 10 -2 0
-4 -4 -4 -10z"/>
<path d="M8865 1979 c-4 -6 -4 -13 -1 -16 8 -8 36 5 36 17 0 13 -27 13 -35 -1z"/>
<path d="M9361 1654 c0 -11 3 -14 6 -6 3 7 2 16 -1 19 -3 4 -6 -2 -5 -13z"/>
<path d="M8827 1513 c-14 -13 -6 -23 17 -23 13 0 26 7 30 15 4 11 -1 15 -18
15 -12 0 -26 -3 -29 -7z"/>
<path d="M8820 1280 c-23 -17 -23 -19 -7 -26 22 -8 50 15 39 33 -5 8 -14 7
-32 -7z"/>
<path d="M9095 850 c3 -5 8 -10 11 -10 2 0 4 5 4 10 0 6 -5 10 -11 10 -5 0 -7
-4 -4 -10z"/>
<path d="M9155 840 c-3 -5 1 -10 10 -10 9 0 13 5 10 10 -3 6 -8 10 -10 10 -2
0 -7 -4 -10 -10z"/>
<path d="M9130 511 c0 -6 5 -13 10 -16 6 -3 10 1 10 9 0 9 -4 16 -10 16 -5 0
-10 -4 -10 -9z"/>
<path d="M9251 484 c0 -11 3 -14 6 -6 3 7 2 16 -1 19 -3 4 -6 -2 -5 -13z"/>
<path d="M9535 430 c3 -5 8 -10 11 -10 2 0 4 5 4 10 0 6 -5 10 -11 10 -5 0 -7
-4 -4 -10z"/>
<path d="M9570 6425 c0 -8 7 -15 15 -15 8 0 15 7 15 15 0 8 -7 15 -15 15 -8 0
-15 -7 -15 -15z"/>
<path d="M9530 6000 c0 -5 5 -10 10 -10 6 0 10 5 10 10 0 6 -4 10 -10 10 -5 0
-10 -4 -10 -10z"/>
<path d="M9422 5620 c0 -14 2 -19 5 -12 2 6 2 18 0 25 -3 6 -5 1 -5 -13z"/>
<path d="M0 4072 c0 -12 19 -26 26 -19 2 2 -2 10 -11 17 -9 8 -15 8 -15 2z"/>
<path d="M9485 4000 c-3 -5 -1 -10 4 -10 6 0 11 5 11 10 0 6 -2 10 -4 10 -3 0
-8 -4 -11 -10z"/>
<path d="M25 3320 c-3 -5 -1 -10 4 -10 6 0 11 5 11 10 0 6 -2 10 -4 10 -3 0
-8 -4 -11 -10z"/>
<path d="M9560 1412 c0 -5 9 -17 20 -27 20 -18 20 -17 20 8 0 20 -5 27 -20 27
-11 0 -20 -4 -20 -8z"/>
</g>
</svg>
